<svg xmlns="http://www.w3.org/2000/svg" viewBox="0 0 511.999 511.999" xml:space="preserve"><g xmlns="http://www.w3.org/2000/svg" fill="#08003a"><path d="M114.614 333.78c0-30.747 8.832-59.315 23.959-83.049l.441-3.117s-54.954 22.471-68.738 74.063c-7.885 29.51-7.261 39.694-7.261 39.694l57.121 19.847.571-4.041c-3.958-13.731-6.093-28.301-6.093-43.397zM441.723 321.678c-13.784-51.592-68.738-74.063-68.738-74.063l.441 3.117c15.127 23.734 23.959 52.302 23.959 83.049 0 15.097-2.135 29.666-6.092 43.398l.571 4.041 57.121-19.847c-.001-.001.623-10.184-7.262-39.695zM304.437 175.175c-1.115.092-2.24.151-3.379.151-22.503 0-40.746-18.243-40.746-40.746 0-.421.019-.837.032-1.255h-8.69c.012.417.032.833.032 1.255 0 22.503-18.243 40.746-40.746 40.746-1.138 0-2.264-.058-3.379-.151-.033.158-.072.319-.105.477-3.872 18.717-5.163 22.591-5.163 22.591l53.706 66.197 53.706-66.197s-1.291-3.872-5.163-22.591c-.033-.157-.07-.318-.105-.477zM407.667 498.136H303.69v-3.469c0-28.713 23.275-51.989 51.989-51.989 28.713 0 51.989 23.276 51.989 51.989l-.001 3.469zM210.929 498.136H106.952v-3.469c0-28.713 23.276-51.989 51.989-51.989 28.713 0 51.989 23.276 51.989 51.989v3.469z" data-original="#cff09e"/></g><path xmlns="http://www.w3.org/2000/svg" d="M455.118 318.1c-14.199-53.145-65.549-78.291-75.346-82.654-.99-1.37-1.978-2.74-3.011-4.08 17.117-24.572 26.435-54.045 26.435-84.168C403.197 66.032 337.164 0 255.999 0S108.801 66.032 108.801 147.198c0 30.123 9.318 59.597 26.435 84.168-1.033 1.341-2.021 2.71-3.011 4.08-9.797 4.363-61.146 29.509-75.346 82.654-8.058 30.159-7.832 42.044-7.706 44.119.342 5.583 4.004 10.415 9.288 12.251l52.92 18.387c5.451 14.686 12.904 28.541 22.166 41.054-23.743 9.959-40.463 33.439-40.463 60.756v3.467c0 7.657 6.207 13.864 13.864 13.864h103.977c7.657 0 13.864-6.207 13.864-13.864v-3.467c0-.413-.024-.821-.032-1.231 8.525 1.831 17.203 2.895 25.98 3.201 1.739.134 3.491.208 5.257.208.607 0 1.199-.053 1.786-.128 10.882-.128 21.608-1.421 32.086-3.874-.017.607-.046 1.212-.046 1.823v3.467c0 7.657 6.207 13.864 13.864 13.864h103.977c7.657 0 13.864-6.207 13.864-13.864v-3.467c0-36.312-29.542-65.854-65.853-65.854-24.042 0-45.108 12.958-56.604 32.25-13.794 5.257-28.257 7.947-43.075 7.947-1.239 0-2.475-.039-3.709-.076-37.334-3.617-72.879-61.041-72.879-119.514 0-44.975 22.747-76.33 59.887-83.561l5.935 7.315c2.633 3.244 6.588 5.13 10.767 5.13 4.179 0 8.134-1.884 10.767-5.13l5.935-7.315c37.14 7.23 59.887 38.586 59.887 83.561 0 7.657 6.207 13.864 13.864 13.864 7.657 0 13.864-6.207 13.864-13.864 0-53.04-26.204-92.844-68.491-107.133l28.648-35.31c3.053-3.763 4.044-8.484 2.415-13.039-.226-.775-1.556-5.565-4.767-21.084l-.126-.578c-1.456-6.814-7.749-11.491-14.689-10.92-.854.071-1.589.104-2.247.104-.926 0-1.843-.047-2.745-.139-13.539-1.38-24.138-12.847-24.138-26.743v-.001c0-14.824 12.059-26.882 26.883-26.882 14.822 0 26.882 12.059 26.882 26.882 0 7.657 6.207 13.864 13.864 13.864s13.864-6.207 13.864-13.864c0-30.112-24.498-54.61-54.61-54.61-18.689 0-35.21 9.442-45.059 23.801-9.849-14.359-26.37-23.801-45.059-23.801-30.112 0-54.61 24.498-54.61 54.61 0 7.657 6.207 13.864 13.864 13.864 7.657 0 13.864-6.207 13.864-13.864 0-14.822 12.059-26.882 26.882-26.882 14.822 0 26.882 12.058 26.883 26.882v.001c0 13.896-10.599 25.363-24.138 26.743-.903.092-1.818.139-2.745.139-.659 0-1.392-.033-2.247-.104-6.957-.556-13.25 4.186-14.707 11l-.105.487c-3.214 15.529-4.543 20.321-4.769 21.096-1.629 4.556-.638 9.275 2.415 13.039l28.648 35.31c-42.288 14.289-68.491 54.093-68.491 107.133 0 27.268 6.852 55.801 18.775 80.423-1.597-.283-3.207-.527-4.841-.692-20.629-22.01-33.512-51.024-36.477-81.735-.051-.545-.097-1.09-.143-1.635-.086-1.019-.162-2.039-.227-3.061-.065-1.058-.123-2.117-.166-3.178-.019-.464-.035-.929-.05-1.395-.044-1.454-.076-2.91-.076-4.369 0-1.972.051-3.935.132-5.894.024-.589.061-1.176.093-1.764.075-1.413.168-2.821.283-4.226.051-.62.104-1.239.162-1.858.146-1.524.317-3.042.51-4.554.054-.424.098-.851.157-1.274.268-1.953.573-3.899.919-5.833.053-.291.115-.58.169-.871.302-1.625.631-3.241.989-4.85.122-.552.254-1.101.383-1.65.326-1.389.674-2.773 1.041-4.15.146-.546.288-1.092.441-1.636.451-1.608.929-3.207 1.435-4.794.082-.255.154-.513.236-.768.588-1.809 1.22-3.602 1.88-5.382.208-.562.433-1.116.649-1.675.467-1.21.947-2.417 1.447-3.612.291-.695.589-1.386.891-2.077.47-1.073.957-2.136 1.453-3.196.326-.696.646-1.395.984-2.084.607-1.242 1.242-2.469 1.887-3.692.481-.912.975-1.818 1.477-2.719.606-1.09 1.217-2.177 1.852-3.248.442-.747.904-1.485 1.361-2.224 4.097-6.62 8.741-12.912 13.957-18.77 4.538-5.099 4.69-12.743.359-18.018-17.472-21.276-27.094-48.181-27.094-75.762 0-65.875 53.594-119.469 119.469-119.469s119.469 53.594 119.469 119.469c0 27.58-9.622 54.486-27.094 75.762-4.333 5.275-4.18 12.919.359 18.018 5.214 5.858 9.86 12.149 13.957 18.77.457.739.919 1.477 1.361 2.224.635 1.073 1.246 2.159 1.852 3.248.502.901.995 1.807 1.477 2.719.645 1.223 1.28 2.45 1.887 3.692.338.69.659 1.389.984 2.084.496 1.059.984 2.124 1.453 3.196.302.69.6 1.382.891 2.077.5 1.197.982 2.401 1.447 3.612.216.559.441 1.113.649 1.675.66 1.78 1.292 3.573 1.88 5.382.083.255.155.513.236.768.506 1.587.986 3.186 1.435 4.794.152.543.294 1.091.441 1.636.367 1.377.715 2.759 1.041 4.15.129.549.259 1.098.383 1.65.358 1.608.686 3.225.989 4.85.054.291.118.58.169.871.347 1.934.652 3.879.919 5.833.058.423.103.85.157 1.274.193 1.513.365 3.031.51 4.554.058.618.111 1.238.162 1.858.115 1.404.208 2.813.283 4.226.031.588.068 1.174.093 1.764.079 1.959.132 3.924.132 5.894 0 13.466-1.867 26.776-5.55 39.561-.541 1.876-.678 3.843-.405 5.777l.571 4.041c.58 4.105 2.967 7.735 6.504 9.895 2.202 1.343 4.704 2.03 7.225 2.03 1.531 0 3.07-.254 4.55-.768l57.121-19.847c5.284-1.836 8.947-6.667 9.288-12.251.127-2.072.353-13.957-7.705-44.116zm-99.44 138.443c17.419 0 32.147 11.743 36.684 27.729h-73.367c4.536-15.986 19.264-27.729 36.683-27.729zM218.874 188.615c.062-.01.122-.022.184-.032.591-.089 1.173-.198 1.757-.305.338-.062.681-.114 1.018-.182.746-.151 1.484-.326 2.218-.507.168-.042.34-.075.507-.118.896-.232 1.783-.485 2.662-.76.295-.093.584-.2.878-.298.581-.193 1.163-.384 1.736-.596.351-.13.695-.275 1.043-.412.506-.2 1.012-.395 1.511-.609.366-.157.724-.327 1.086-.491.47-.214.941-.426 1.403-.653.367-.18.729-.372 1.092-.56.445-.23.889-.46 1.327-.702.365-.202.724-.413 1.084-.624.424-.248.847-.496 1.264-.756.358-.222.708-.451 1.061-.681.408-.266.812-.534 1.212-.811.347-.24.689-.485 1.03-.733.392-.284.781-.573 1.163-.867.334-.256.665-.517.994-.781.377-.304.749-.611 1.117-.925.32-.272.638-.546.951-.825.363-.323.721-.653 1.076-.986.304-.284.606-.568.903-.86.351-.344.693-.695 1.034-1.048.286-.297.573-.591.851-.893.338-.366.667-.74.995-1.116.266-.304.534-.606.793-.916.329-.392.645-.793.961-1.195.243-.306.489-.61.725-.923.322-.426.629-.861.939-1.296.18-.252.37-.498.546-.753.176.256.366.501.546.753.309.435.617.871.939 1.296.236.312.483.616.725.923.318.402.634.803.961 1.195.259.311.528.611.793.916.329.376.657.75.995 1.116.279.302.566.598.851.893.341.354.684.704 1.034 1.048.297.291.599.575.903.86.355.333.713.663 1.076.986.313.279.632.553.951.825.369.313.74.621 1.117.925.329.263.659.524.994.781.384.294.772.582 1.163.867.341.248.684.494 1.03.733.399.276.806.545 1.212.811.352.23.703.459 1.061.681.417.259.84.507 1.264.756.36.209.718.421 1.084.624.437.243.882.471 1.327.702.363.189.724.38 1.092.56.463.227.933.439 1.403.653.362.165.72.334 1.086.491.498.214 1.005.41 1.511.609.348.137.692.281 1.043.412.573.212 1.155.403 1.736.596.294.097.582.205.878.298.878.275 1.765.53 2.662.76.168.043.34.076.507.118.735.182 1.472.356 2.218.507.337.068.679.121 1.018.182.584.107 1.167.216 1.757.305.062.01.122.022.184.032.55 2.505 1.022 4.582 1.425 6.303l-38.246 47.139c-.003.004-.007.008-.01.012l-.294.363-38.55-47.515c.412-1.718.883-3.795 1.433-6.302zM102.839 360.533l-25.027-8.696c.88-5.684 2.579-14.311 5.858-26.579 4.378-16.389 13.808-29.52 23.953-39.563-.012.043-.024.087-.036.13-.064.218-.118.438-.18.656-.539 1.87-1.05 3.75-1.525 5.641-.155.621-.293 1.246-.441 1.869-.358 1.497-.706 2.997-1.023 4.507-.155.738-.295 1.481-.441 2.221-.276 1.406-.539 2.813-.781 4.227-.136.794-.262 1.592-.385 2.389-.215 1.378-.412 2.76-.592 4.145-.107.815-.212 1.632-.306 2.45-.162 1.398-.299 2.801-.427 4.205-.072.8-.153 1.597-.214 2.399-.116 1.51-.2 3.024-.276 4.539-.035.693-.085 1.384-.111 2.078-.085 2.204-.134 4.414-.134 6.63 0 1.953.046 3.903.114 5.851.018.543.037 1.086.061 1.629.078 1.747.175 3.49.306 5.228.065.879.15 1.754.229 2.63.075.822.154 1.644.241 2.465.308 2.994.669 5.981 1.137 8.949zm19.417 123.738c4.536-15.986 19.265-27.729 36.684-27.729.372 0 .735.036 1.104.046 1.489.043 2.963.165 4.416.379.128.018.258.029.385.049.751.118 1.493.27 2.232.433.18.039.362.073.541.115.745.175 1.479.376 2.209.595.154.046.308.09.462.139.746.234 1.485.489 2.213.768.115.044.229.09.344.134.756.298 1.503.614 2.236.958.054.026.108.054.162.079 2.984 1.417 5.766 3.226 8.291 5.357.211.179.431.348.639.531.383.338.747.699 1.117 1.052.34.326.682.647 1.009.986.304.312.595.639.887.962.367.406.732.815 1.081 1.237.254.305.499.617.743.929.36.462.71.932 1.05 1.41.22.311.437.623.647.941.33.498.645 1.005.952 1.518.195.327.394.653.58.987.288.516.556 1.044.819 1.574.176.355.359.704.525 1.066.81 1.762 1.5 3.589 2.038 5.482h-73.367v.002zm286.903-123.738c1.389-8.812 2.089-17.756 2.089-26.753 0-2.218-.05-4.431-.134-6.638-.026-.7-.076-1.395-.112-2.094-.076-1.511-.159-3.021-.276-4.525-.062-.812-.143-1.621-.218-2.432-.128-1.393-.263-2.784-.424-4.172-.097-.833-.204-1.664-.313-2.494-.179-1.368-.373-2.731-.585-4.093-.128-.819-.258-1.636-.398-2.453-.236-1.384-.494-2.762-.764-4.139-.151-.774-.299-1.547-.462-2.318-.306-1.453-.642-2.898-.986-4.341-.162-.679-.313-1.363-.484-2.039-.43-1.708-.896-3.405-1.378-5.098-.114-.399-.214-.803-.33-1.201-.021-.071-.037-.143-.058-.214 10.145 10.035 19.586 23.202 24.001 39.721 3.278 12.27 4.977 20.896 5.858 26.579l-25.026 8.704z" fill="#08003a" data-original="#507c5c"/></svg>